<svg xmlns="http://www.w3.org/2000/svg" width="31" height="30" viewBox="0 0 31 30"><g><g><g><path fill="#fff" d="M21.614 9.899l-11.038 6.846a.502.502 0 0 0-.215.576l1.48 4.771c.032.1.178.087.19-.018l.36-3.199a.502.502 0 0 1 .166-.32l9.347-8.266c.224-.198-.036-.548-.29-.39z"/></g><g><path fill="#fff" d="M25.817 7.82L22.38 24.247a1.083 1.083 0 0 1-1.7.65l-5.188-3.807-2.644 2.7a.878.878 0 0 1-1.465-.351l-1.909-6.056-5.113-1.51c-.671-.198-.711-1.133-.06-1.387l20.125-7.843a1.035 1.035 0 0 1 1.39 1.177zM.73 0v30.094h30.094V0z"/></g></g></g></svg>