<svg xmlns="http://www.w3.org/2000/svg" width="31" height="30" viewBox="0 0 31 30"><g><g><g><path fill="#fff" d="M20.503 14.308c-.193.002-.28-.16-.293-.333-.024-.343-.042-.688-.089-1.028-.25-1.796-1.682-3.282-3.47-3.601-.269-.048-.544-.061-.817-.09-.172-.018-.398-.028-.436-.242-.032-.18.12-.323.29-.332.047-.003.094 0 .14 0l.036.001c2.396.082 4.359 1.678 4.78 4.05.073.407.099.822.131 1.234.014.174-.085.338-.272.34zm-3.091-3.451a3.29 3.29 0 0 0-.912-.28c-.137-.023-.276-.037-.414-.056-.167-.023-.257-.13-.249-.295.008-.154.12-.265.289-.256.553.031 1.088.151 1.58.412 1 .53 1.572 1.366 1.739 2.482.007.05.02.101.023.152.01.125.015.25.025.416-.004.03-.006.1-.024.168-.064.242-.43.272-.515.028a.729.729 0 0 1-.029-.233c0-.511-.112-1.021-.37-1.466a2.728 2.728 0 0 0-1.143-1.072zm.581 2.517a.367.367 0 0 1-.026-.002c-.184-.006-.284-.115-.304-.291-.015-.13-.026-.26-.057-.385a1.084 1.084 0 0 0-.4-.628 1.042 1.042 0 0 0-.325-.157c-.148-.043-.302-.031-.45-.067-.16-.04-.249-.17-.224-.32a.29.29 0 0 1 .306-.233c.935.068 1.603.551 1.698 1.652.007.077.015.16-.002.234a.24.24 0 0 1-.216.197zm2.38 4.297c-.261.555-.642 1.017-1.19 1.312-.155.083-.34.11-.515.164-.201-.062-.393-.103-.57-.176-1.844-.765-3.54-1.752-4.885-3.264-.764-.86-1.362-1.832-1.868-2.86-.24-.487-.441-.993-.647-1.496-.188-.459.088-.933.38-1.279a3.003 3.003 0 0 1 1.006-.755c.297-.143.59-.06.807.191.47.545.9 1.118 1.25 1.75.215.388.156.862-.233 1.127-.095.064-.181.14-.27.212a.881.881 0 0 0-.202.214.586.586 0 0 0-.04.515c.48 1.318 1.29 2.343 2.617 2.896.212.088.425.191.67.162.41-.047.542-.497.83-.732.28-.23.639-.232.941-.04.302.19.596.396.887.604.286.203.57.403.834.635.254.223.341.516.198.82zm-.045-10.712a24.006 24.006 0 0 0-9.01 0c-1.307.291-2.952 1.867-3.273 3.135a17.232 17.232 0 0 0 0 7.394c.321 1.268 1.966 2.844 3.274 3.135.059.012.101.062.101.121v3.594a.2.2 0 0 0 .344.138l1.707-1.752 1.605-1.647a.122.122 0 0 1 .091-.037 24.03 24.03 0 0 0 5.16-.417c1.308-.291 2.954-1.867 3.275-3.135.536-2.454.536-4.94 0-7.394-.321-1.268-1.966-2.844-3.274-3.135z"/></g><g><path fill="#fff" d="M25.341 17.881l-.006.024c-.48 1.943-2.648 4.029-4.638 4.463l-.022.004a25.859 25.859 0 0 1-6.282.419l-2.198 2.285c-.544.566-1.501.18-1.501-.604v-2.17c-1.916-.547-3.922-2.537-4.383-4.397l-.005-.024a18.99 18.99 0 0 1 0-8.18l.005-.024c.482-1.944 2.649-4.029 4.639-4.463l.023-.004a25.775 25.775 0 0 1 9.702 0l.022.004c1.99.434 4.158 2.52 4.638 4.463l.006.024a18.99 18.99 0 0 1 0 8.18zM.776 0v30.094h30.095V0z"/></g></g></g></svg>