<svg xmlns="http://www.w3.org/2000/svg" width="31" height="30" viewBox="0 0 31 30"><g><g><g><path fill="#fff" d="M21.256 17.705l-.109.508a2.202 2.202 0 0 1-.958 1.398c-.624.4-1.433.595-2.462.305-3.191-.903-4.996-3.016-5.965-4.337-.968-1.32-1.343-2.641-1.1-3.72.162-.723.69-1.278 1.021-1.565a.825.825 0 0 1 .587-.2l.682.036c.134.008.252.09.305.214l.994 2.325a.353.353 0 0 1-.058.37l-.865 1a.261.261 0 0 0-.033.292c1.14 2.194 3.215 3.063 3.835 3.281a.259.259 0 0 0 .29-.087l.906-1.173c.1-.13.278-.174.427-.105l2.305 1.063c.15.07.233.233.198.395zm-5.352-11.41c-4.812 0-8.728 3.915-8.728 8.727 0 1.677.477 3.306 1.379 4.71l.216.337-.849 3.015 3.12-.803.321.196a8.71 8.71 0 0 0 4.541 1.273c4.813 0 8.728-3.915 8.728-8.728 0-4.812-3.915-8.727-8.728-8.727z"/></g><g><path fill="#fff" d="M15.904 25.533c-1.806 0-3.574-.462-5.138-1.34l-5.4 1.39 1.475-5.236a10.478 10.478 0 0 1-1.448-5.325c0-5.795 4.716-10.51 10.511-10.51 5.796 0 10.51 4.715 10.51 10.51 0 5.796-4.714 10.511-10.51 10.511zM.844 0v30.094h30.094V0z"/></g></g></g></svg>